<?xml version="1.0" encoding="UTF-8"?>
<svg xmlns="http://www.w3.org/2000/svg" version="1.1" width="400" height="400" viewBox="0 0 400 400"><rect x="0" y="0" width="400" height="400" fill="#fefefe"/><g transform="scale(12.121)"><g transform="translate(4,4)"><path fill-rule="evenodd" d="M9 0L9 1L8 1L8 2L9 2L9 3L8 3L8 4L9 4L9 5L8 5L8 7L9 7L9 8L6 8L6 9L5 9L5 8L0 8L0 12L2 12L2 13L0 13L0 17L1 17L1 14L2 14L2 13L3 13L3 16L4 16L4 17L5 17L5 15L7 15L7 16L6 16L6 17L8 17L8 19L11 19L11 20L14 20L14 19L16 19L16 20L15 20L15 21L14 21L14 22L13 22L13 21L12 21L12 22L9 22L9 20L8 20L8 25L11 25L11 24L12 24L12 25L16 25L16 24L17 24L17 25L18 25L18 24L22 24L22 25L25 25L25 24L24 24L24 23L25 23L25 21L23 21L23 22L22 22L22 23L21 23L21 21L22 21L22 19L25 19L25 15L24 15L24 14L22 14L22 15L23 15L23 16L24 16L24 18L22 18L22 19L21 19L21 17L22 17L22 16L15 16L15 13L16 13L16 14L17 14L17 15L19 15L19 14L20 14L20 15L21 15L21 13L22 13L22 12L18 12L18 11L19 11L19 10L20 10L20 11L21 11L21 9L22 9L22 8L21 8L21 9L20 9L20 8L19 8L19 10L18 10L18 8L17 8L17 6L16 6L16 8L15 8L15 4L16 4L16 5L17 5L17 2L16 2L16 3L14 3L14 1L17 1L17 0L14 0L14 1L13 1L13 0L12 0L12 1L13 1L13 2L9 2L9 1L11 1L11 0ZM9 3L9 4L10 4L10 5L9 5L9 7L10 7L10 6L11 6L11 8L9 8L9 9L12 9L12 8L14 8L14 6L13 6L13 7L12 7L12 5L11 5L11 4L13 4L13 5L14 5L14 4L13 4L13 3ZM23 8L23 9L24 9L24 10L25 10L25 9L24 9L24 8ZM1 9L1 10L2 10L2 9ZM4 9L4 10L5 10L5 9ZM6 9L6 10L7 10L7 11L6 11L6 12L5 12L5 11L3 11L3 12L5 12L5 13L4 13L4 15L5 15L5 13L6 13L6 14L7 14L7 15L8 15L8 17L9 17L9 18L10 18L10 17L12 17L12 18L15 18L15 16L14 16L14 15L12 15L12 13L13 13L13 14L14 14L14 12L16 12L16 13L17 13L17 14L18 14L18 13L17 13L17 12L16 12L16 11L17 11L17 9L13 9L13 10L16 10L16 11L12 11L12 10L10 10L10 14L11 14L11 15L10 15L10 17L9 17L9 15L8 15L8 14L7 14L7 13L6 13L6 12L8 12L8 9ZM22 10L22 11L23 11L23 10ZM23 12L23 13L25 13L25 12ZM13 16L13 17L14 17L14 16ZM17 17L17 20L20 20L20 17ZM18 18L18 19L19 19L19 18ZM15 21L15 23L13 23L13 22L12 22L12 24L16 24L16 23L17 23L17 22L16 22L16 21ZM19 21L19 23L20 23L20 21ZM23 22L23 23L22 23L22 24L23 24L23 23L24 23L24 22ZM9 23L9 24L11 24L11 23ZM0 0L0 7L7 7L7 0ZM1 1L1 6L6 6L6 1ZM2 2L2 5L5 5L5 2ZM18 0L18 7L25 7L25 0ZM19 1L19 6L24 6L24 1ZM20 2L20 5L23 5L23 2ZM0 18L0 25L7 25L7 18ZM1 19L1 24L6 24L6 19ZM2 20L2 23L5 23L5 20Z" fill="#000000"/></g></g></svg>
